# xmcd
#
# Track frame offsets: 
#        150
#        16097
#        33675
#        53435
#        73840
#        91375
#        117742
#        139380
#        160627
#        178775
#        203295
#
# Disc length: 3000 seconds
#
# Revision: 1
# Processed by: cddbd v1.5.1PL2 Copyright (c) Steve Scherf et al.
# Submitted via: ExactAudioCopy v0.95a5
#
DISCID=920bb60b
DTITLE=Rodney Crowell - The Outsider
DYEAR=2005
DGENRE=Alternative
TTITLE0=Say You Love Me
TTITLE1=The Obscenity Prayer
TTITLE2=The Outsider
TTITLE3=Dancin' Circles Round the Sun (Epictetus Speaks)
TTITLE4=Beautiful Despair
TTITLE5=Don't Get Me Started
TTITLE6=Ignorance is the Enemy
TTITLE7=Glasgow Girl
TTITLE8=Things That Go Bump in the Day
TTITLE9=Shelter From the Storm
TTITLE10=We Can't Turn Back Now
EXTD=
EXTT0=
EXTT1=
EXTT2=
EXTT3=
EXTT4=
EXTT5=
EXTT6=
EXTT7=
EXTT8=
EXTT9=
EXTT10=
PLAYORDER=
